<svg xmlns="http://www.w3.org/2000/svg" viewBox="0 0 24 24" fill="#E4405F" width="24" height="24"><path d="M12 2.163c3.204 0 3.584.012 4.85.07 1.366.062 2.633.334 3.608 1.308.974.974 1.246 2.242 1.308 3.608.058 1.266.07 1.646.07 4.85s-.012 3.584-.07 4.85c-.062 1.366-.334 2.633-1.308 3.608-.974.974-2.242 1.246-3.608 1.308-1.266.058-1.646.07-4.85.07s-3.584-.012-4.85-.07c-1.366-.062-2.633-.334-3.608-1.308-.974-.974-1.246-2.242-1.308-3.608C2.175 15.647 2.163 15.267 2.163 12s.012-3.584.07-4.85c.062-1.366.334-2.633 1.308-3.608.974-.974 2.242-1.246 3.608-1.308C8.416 2.175 8.796 2.163 12 2.163zm0-2.163C8.741 0 8.332.013 7.052.072 5.775.131 4.602.425 3.635 1.392 2.668 2.359 2.374 3.532 2.315 4.808 2.256 6.088 2.243 6.497 2.243 12c0 5.503.013 5.912.072 7.192.059 1.276.353 2.449 1.32 3.416.967.967 2.14 1.261 3.416 1.32 1.28.059 1.689.072 7.192.072s5.912-.013 7.192-.072c1.276-.059 2.449-.353 3.416-1.32.967-.967 1.261-2.14 1.32-3.416.059-1.28.072-1.689.072-7.192s-.013-5.912-.072-7.192c-.059-1.276-.353-2.449-1.32-3.416C21.449.425 20.276.131 19 .072 17.72.013 17.311 0 12 0zm0 5.838a6.162 6.162 0 1 0 0 12.324 6.162 6.162 0 0 0 0-12.324zm0 10.162a3.999 3.999 0 1 1 0-7.998 3.999 3.999 0 0 1 0 7.998zm6.406-11.845a1.44 1.44 0 1 0 0 2.88 1.44 1.44 0 0 0 0-2.88z"/></svg>
